<svg xmlns="http://www.w3.org/2000/svg" viewBox="0 0 526.06 129.43"><defs><style>.cls-1{fill:#fff;}.cls-2{fill:#c5ae6f;}</style></defs><title>Asset 1</title><g id="Layer_2" data-name="Layer 2"><g id="Layer_1-2" data-name="Layer 1"><path class="cls-1" d="M187.42,59.6c6.61,0,13.31,2.11,13.31,10.78S194,81.06,187.42,81.06H173.22V46H198v5.27H178.88V59.6Zm.1,16.25c3.73,0,7.45-.65,7.45-5.47s-3.78-5.57-7.45-5.57h-8.64v11Z"/><path class="cls-1" d="M226.5,77.25a5.59,5.59,0,0,0,1.59-.3v3.86a9.2,9.2,0,0,1-3.38.6,4.76,4.76,0,0,1-4.77-2.81,13.76,13.76,0,0,1-9,3.11c-4.32,0-8.34-2.41-8.34-7.37,0-6.17,5.66-8.07,10.63-8.07a31.4,31.4,0,0,1,6.21.7v-.85c0-3-2.19-5.12-6.26-5.12a21.06,21.06,0,0,0-8.59,1.85V57.94a28.94,28.94,0,0,1,9.14-1.61c6.76,0,11,3.26,11,10.53v8.63A1.55,1.55,0,0,0,226.5,77.25ZM208.08,74c0,2.36,2.09,3.56,4.47,3.56a9.64,9.64,0,0,0,6.9-2.86V70.63a27.52,27.52,0,0,0-5.16-.6C211.26,70,208.08,71,208.08,74Z"/><path class="cls-1" d="M230.87,81.06V57h5.31v9.68h11.92V57h5.31V81.06h-5.31V71.38H236.19v9.68Z"/><path class="cls-1" d="M258.83,81.06V57h5.31v9.53h3.92L274.92,57H281l-8.64,11.94,9.59,12.14h-6.11l-7.85-10h-3.82v10Z"/><path class="cls-1" d="M298.06,56.34c7.15,0,11.82,5.77,11.82,12.69s-4.67,12.69-11.82,12.69A11,11,0,0,1,289.47,78V92.1h-5.31V57h4.72v3.76A11.34,11.34,0,0,1,298.06,56.34Zm-1,4.71a8.39,8.39,0,0,0-7.6,5v5.87a8.35,8.35,0,0,0,7.6,5.07c4.32,0,7.4-3.26,7.4-8S301.39,61.05,297.07,61.05Z"/><path class="cls-1" d="M325.23,56.34c6.71,0,12.91,4.36,12.91,12.69s-6.21,12.69-12.91,12.69S312.32,77.35,312.32,69,318.57,56.34,325.23,56.34Zm0,4.91c-4.47,0-7.55,3.06-7.55,7.77s3.08,7.77,7.55,7.77,7.5-3.06,7.5-7.77S329.65,61.25,325.23,61.25Z"/><path class="cls-1" d="M347.18,81.06V61.7h-8.24V57h21.75V61.7h-8.19V81.06Z"/><path class="cls-1" d="M389.59,83V78.45c-10.63-.35-17.53-5.72-17.53-14.95s6.9-14.6,17.53-14.95V44h5.51v4.51c10.68.4,17.53,5.72,17.53,14.95s-6.85,14.54-17.53,14.95V83Zm0-9.43V53.48c-8.24.45-11.77,4.41-11.77,10S381.35,73.09,389.59,73.54Zm5.51,0c8.24-.45,11.77-4.46,11.77-10s-3.53-9.58-11.77-10Z"/><path class="cls-1" d="M427.43,56.34c6.71,0,12.91,4.36,12.91,12.69s-6.21,12.69-12.91,12.69S414.52,77.35,414.52,69,420.78,56.34,427.43,56.34Zm0,4.91c-4.47,0-7.55,3.06-7.55,7.77s3.08,7.77,7.55,7.77,7.5-3.06,7.5-7.77S431.85,61.25,427.43,61.25Z"/><path class="cls-1" d="M458.17,56.34C465.32,56.34,470,62.1,470,69s-4.67,12.69-11.82,12.69A11,11,0,0,1,449.58,78V92.1h-5.31V57H449v3.76A11.34,11.34,0,0,1,458.17,56.34Zm-1,4.71a8.39,8.39,0,0,0-7.6,5v5.87a8.35,8.35,0,0,0,7.6,5.07c4.32,0,7.4-3.26,7.4-8S461.5,61.05,457.18,61.05Z"/><path class="cls-1" d="M490.8,57h5.56L485.19,84.32c-2.58,6.27-6,8.38-9.59,8.38a13.37,13.37,0,0,1-3.13-.4V87.73a8.16,8.16,0,0,0,2.43.35c2.58,0,4.52-1.86,5.91-5.62l.5-1.2L470,57h5.66l8,18.16Z"/><path class="cls-1" d="M499.09,81.06V57h5.36l8.1,12.69L520.7,57h5.36V81.06h-5.12V64.76l-6.8,10.53H511l-6.75-10.53v16.3Z"/><path class="cls-2" d="M86.59,0H0V129.43H128.34V0ZM3.42,3.45H83.17V42H3.42ZM41.59,126H3.42V45.44H41.59ZM45,45.44H83.34V84H45ZM124.92,126H45.17V87.44h79.76ZM86.75,84V3.45h38.17V84Z"/></g></g></svg>